<svg width="57" height="56" viewBox="0 0 57 56" fill="none" xmlns="http://www.w3.org/2000/svg">
<g filter="url(#filter0_d_39_656)">
<rect x="5.75" y="2" width="45" height="45" rx="12" fill="#3B76F6"/>
<path d="M32.75 14.5V20.5M32.75 20.5H38.75M32.75 20.5L38.75 14.5M30.582 29.068C30.7885 29.1628 31.0212 29.1845 31.2417 29.1294C31.4622 29.0744 31.6573 28.9458 31.795 28.765L32.15 28.3C32.3363 28.0516 32.5779 27.85 32.8556 27.7111C33.1333 27.5723 33.4395 27.5 33.75 27.5H36.75C37.2804 27.5 37.7891 27.7107 38.1642 28.0858C38.5393 28.4609 38.75 28.9696 38.75 29.5V32.5C38.75 33.0304 38.5393 33.5391 38.1642 33.9142C37.7891 34.2893 37.2804 34.5 36.75 34.5C31.9761 34.5 27.3977 32.6036 24.0221 29.2279C20.6464 25.8523 18.75 21.2739 18.75 16.5C18.75 15.9696 18.9607 15.4609 19.3358 15.0858C19.7109 14.7107 20.2196 14.5 20.75 14.5H23.75C24.2804 14.5 24.7891 14.7107 25.1642 15.0858C25.5393 15.4609 25.75 15.9696 25.75 16.5V19.5C25.75 19.8105 25.6777 20.1167 25.5389 20.3944C25.4 20.6721 25.1984 20.9137 24.95 21.1L24.482 21.451C24.2984 21.5912 24.169 21.7906 24.1158 22.0154C24.0626 22.2401 24.0888 22.4764 24.19 22.684C25.5567 25.4599 27.8044 27.7048 30.582 29.068Z" stroke="white" stroke-width="2" stroke-linecap="round" stroke-linejoin="round"/>
</g>
<defs>
<filter id="filter0_d_39_656" x="0.25" y="-2.38419e-07" width="56" height="56" filterUnits="userSpaceOnUse" color-interpolation-filters="sRGB">
<feFlood flood-opacity="0" result="BackgroundImageFix"/>
<feColorMatrix in="SourceAlpha" type="matrix" values="0 0 0 0 0 0 0 0 0 0 0 0 0 0 0 0 0 0 127 0" result="hardAlpha"/>
<feOffset dy="3.5"/>
<feGaussianBlur stdDeviation="2.75"/>
<feColorMatrix type="matrix" values="0 0 0 0 0 0 0 0 0 0 0 0 0 0 0 0 0 0 0.02 0"/>
<feBlend mode="normal" in2="BackgroundImageFix" result="effect1_dropShadow_39_656"/>
<feBlend mode="normal" in="SourceGraphic" in2="effect1_dropShadow_39_656" result="shape"/>
</filter>
</defs>
</svg>
