<svg width="56" height="56" viewBox="0 0 56 56" fill="none" xmlns="http://www.w3.org/2000/svg">
<g filter="url(#filter0_d_37_707)">
<rect x="5.5" y="2" width="45" height="45" rx="12" fill="#3B76F6"/>
<path d="M32.5 20.5L38.5 14.5M38.5 14.5V20.5M38.5 14.5H32.5M30.332 29.068C30.5385 29.1628 30.7712 29.1845 30.9917 29.1294C31.2122 29.0744 31.4073 28.9458 31.545 28.765L31.9 28.3C32.0863 28.0516 32.3279 27.85 32.6056 27.7111C32.8833 27.5723 33.1895 27.5 33.5 27.5H36.5C37.0304 27.5 37.5391 27.7107 37.9142 28.0858C38.2893 28.4609 38.5 28.9696 38.5 29.5V32.5C38.5 33.0304 38.2893 33.5391 37.9142 33.9142C37.5391 34.2893 37.0304 34.5 36.5 34.5C31.7261 34.5 27.1477 32.6036 23.7721 29.2279C20.3964 25.8523 18.5 21.2739 18.5 16.5C18.5 15.9696 18.7107 15.4609 19.0858 15.0858C19.4609 14.7107 19.9696 14.5 20.5 14.5H23.5C24.0304 14.5 24.5391 14.7107 24.9142 15.0858C25.2893 15.4609 25.5 15.9696 25.5 16.5V19.5C25.5 19.8105 25.4277 20.1167 25.2889 20.3944C25.15 20.6721 24.9484 20.9137 24.7 21.1L24.232 21.451C24.0484 21.5912 23.919 21.7906 23.8658 22.0154C23.8126 22.2401 23.8388 22.4764 23.94 22.684C25.3067 25.4599 27.5544 27.7048 30.332 29.068Z" stroke="white" stroke-width="1.33333" stroke-linecap="round" stroke-linejoin="round"/>
</g>
<defs>
<filter id="filter0_d_37_707" x="-4.76837e-07" y="-2.38419e-07" width="56" height="56" filterUnits="userSpaceOnUse" color-interpolation-filters="sRGB">
<feFlood flood-opacity="0" result="BackgroundImageFix"/>
<feColorMatrix in="SourceAlpha" type="matrix" values="0 0 0 0 0 0 0 0 0 0 0 0 0 0 0 0 0 0 127 0" result="hardAlpha"/>
<feOffset dy="3.5"/>
<feGaussianBlur stdDeviation="2.75"/>
<feColorMatrix type="matrix" values="0 0 0 0 0 0 0 0 0 0 0 0 0 0 0 0 0 0 0.02 0"/>
<feBlend mode="normal" in2="BackgroundImageFix" result="effect1_dropShadow_37_707"/>
<feBlend mode="normal" in="SourceGraphic" in2="effect1_dropShadow_37_707" result="shape"/>
</filter>
</defs>
</svg>
