<svg width="57" height="56" viewBox="0 0 57 56" fill="none" xmlns="http://www.w3.org/2000/svg">
<g filter="url(#filter0_d_37_699)">
<rect x="6.25" y="2" width="45" height="45" rx="12" fill="#3B76F6"/>
<path d="M28.5001 15.3584C23.4521 15.3584 19.3595 19.451 19.3595 24.499C19.3595 29.547 23.4521 33.6396 28.5001 33.6396C33.5481 33.6396 37.6407 29.547 37.6407 24.499C37.6407 19.451 33.5481 15.3584 28.5001 15.3584Z" fill="white" stroke="white" stroke-width="0.75" stroke-miterlimit="10"/>
<path d="M28.5 15.3584C25.9481 15.3584 23.5487 19.451 23.5487 24.499C23.5487 29.547 25.9481 33.6396 28.5 33.6396C31.0519 33.6396 33.4513 29.547 33.4513 24.499C33.4513 19.451 31.0519 15.3584 28.5 15.3584Z" fill="white" stroke="#3B76F6" stroke-width="0.75" stroke-miterlimit="10"/>
<path d="M22.4062 18.4062C24.0867 19.5994 26.2022 20.3108 28.5001 20.3108C30.798 20.3108 32.9136 19.5994 34.594 18.4062" fill="white"/>
<path d="M22.4062 18.4062C24.0867 19.5994 26.2022 20.3108 28.5001 20.3108C30.798 20.3108 32.9136 19.5994 34.594 18.4062" stroke="#3B76F6" stroke-width="0.75" stroke-linecap="round" stroke-linejoin="round"/>
<path d="M34.594 30.594C32.9136 29.4009 30.798 28.6895 28.5001 28.6895C26.2022 28.6895 24.0867 29.4009 22.4062 30.594" stroke="#3B76F6" stroke-width="0.75" stroke-linecap="round" stroke-linejoin="round"/>
<path d="M28.5001 15.3584V33.6396" stroke="#3B76F6" stroke-width="0.75" stroke-miterlimit="10"/>
<path d="M37.6407 24.499H19.3595" stroke="#3B76F6" stroke-width="0.75" stroke-miterlimit="10"/>
</g>
<defs>
<filter id="filter0_d_37_699" x="0.75" y="-2.38419e-07" width="56" height="56" filterUnits="userSpaceOnUse" color-interpolation-filters="sRGB">
<feFlood flood-opacity="0" result="BackgroundImageFix"/>
<feColorMatrix in="SourceAlpha" type="matrix" values="0 0 0 0 0 0 0 0 0 0 0 0 0 0 0 0 0 0 127 0" result="hardAlpha"/>
<feOffset dy="3.5"/>
<feGaussianBlur stdDeviation="2.75"/>
<feColorMatrix type="matrix" values="0 0 0 0 0 0 0 0 0 0 0 0 0 0 0 0 0 0 0.02 0"/>
<feBlend mode="normal" in2="BackgroundImageFix" result="effect1_dropShadow_37_699"/>
<feBlend mode="normal" in="SourceGraphic" in2="effect1_dropShadow_37_699" result="shape"/>
</filter>
</defs>
</svg>
