<svg width="57" height="56" viewBox="0 0 57 56" fill="none" xmlns="http://www.w3.org/2000/svg">
<g filter="url(#filter0_d_37_715)">
<rect x="6" y="2" width="45" height="45" rx="12" fill="#3B76F6"/>
<path d="M34.1819 16H23.6819C21.4727 16 19.6819 17.7909 19.6819 20V29C19.6819 31.2091 21.4727 33 23.6819 33H34.1819C36.391 33 38.1819 31.2091 38.1819 29V20C38.1819 17.7909 36.391 16 34.1819 16Z" stroke="white" stroke-width="1.5"/>
<path d="M19.729 20.0898L26.934 24.2198C27.5378 24.5702 28.2234 24.7547 28.9215 24.7547C29.6196 24.7547 30.3052 24.5702 30.909 24.2198L38.134 20.0898" stroke="white" stroke-width="1.5" stroke-linecap="round" stroke-linejoin="round"/>
</g>
<defs>
<filter id="filter0_d_37_715" x="0.5" y="-2.38419e-07" width="56" height="56" filterUnits="userSpaceOnUse" color-interpolation-filters="sRGB">
<feFlood flood-opacity="0" result="BackgroundImageFix"/>
<feColorMatrix in="SourceAlpha" type="matrix" values="0 0 0 0 0 0 0 0 0 0 0 0 0 0 0 0 0 0 127 0" result="hardAlpha"/>
<feOffset dy="3.5"/>
<feGaussianBlur stdDeviation="2.75"/>
<feColorMatrix type="matrix" values="0 0 0 0 0 0 0 0 0 0 0 0 0 0 0 0 0 0 0.02 0"/>
<feBlend mode="normal" in2="BackgroundImageFix" result="effect1_dropShadow_37_715"/>
<feBlend mode="normal" in="SourceGraphic" in2="effect1_dropShadow_37_715" result="shape"/>
</filter>
</defs>
</svg>
