<svg width="44" height="44" viewBox="0 0 44 44" fill="none" xmlns="http://www.w3.org/2000/svg">
<rect x="0.5" y="0.5" width="43" height="43" rx="21.5" fill="#FEFEFE"/>
<rect x="0.5" y="0.5" width="43" height="43" rx="21.5" stroke="#D8D8D8"/>
<path d="M21.9619 27.9857H28.7719C29.0371 28.0006 29.3017 27.9473 29.5404 27.8309C29.7791 27.7145 29.9841 27.5388 30.1357 27.3208C30.2873 27.1027 30.3805 26.8494 30.4065 26.585C30.4324 26.3207 30.3902 26.0541 30.2839 25.8107C29.9239 24.7227 28.4889 23.4177 28.4889 22.1337C28.4889 19.2837 28.4889 18.5337 27.0849 16.8577C26.6305 16.3183 26.0672 15.881 25.4319 15.5747L24.6489 15.1947C24.5175 15.1154 24.4042 15.0095 24.3162 14.8838C24.2282 14.7581 24.1674 14.6153 24.1379 14.4647C24.0596 13.9571 23.7912 13.4983 23.3871 13.1813C22.983 12.8643 22.4735 12.7129 21.9619 12.7577C21.4595 12.7276 20.9639 12.8857 20.5719 13.2014C20.1799 13.517 19.9196 13.9675 19.8419 14.4647C19.8066 14.6205 19.7376 14.7667 19.6396 14.8928C19.5416 15.019 19.4171 15.122 19.2749 15.1947L18.4919 15.5747C17.8569 15.8811 17.2939 16.3184 16.8399 16.8577C15.4369 18.5337 15.4369 19.2837 15.4369 22.1337C15.4369 23.4177 14.0669 24.5917 13.7069 25.7447C13.4899 26.4417 13.3699 27.9857 15.1869 27.9857H21.9619Z" stroke="#3E3D3D" stroke-width="1.5" stroke-linecap="round" stroke-linejoin="round"/>
<path d="M25.225 27.9854C25.2335 28.4162 25.155 28.8444 24.994 29.2441C24.8331 29.6439 24.5931 30.007 24.2883 30.3117C23.9836 30.6164 23.6205 30.8565 23.2207 31.0174C22.821 31.1784 22.3928 31.2569 21.962 31.2484C21.531 31.2575 21.1026 31.1793 20.7027 31.0186C20.3027 30.8578 19.9394 30.6178 19.6347 30.3129C19.3299 30.0081 19.09 29.6447 18.9294 29.2447C18.7687 28.8447 18.6907 28.4163 18.7 27.9854" stroke="#3E3D3D" stroke-width="1.5" stroke-linecap="round" stroke-linejoin="round"/>
<circle cx="27" cy="16" r="3" fill="#EF4444"/>
</svg>
