<svg width="24" height="24" viewBox="0 0 24 24" fill="none" xmlns="http://www.w3.org/2000/svg">
<path d="M17.5 2H8C5.79086 2 4 3.79086 4 6V18C4 20.2091 5.79086 22 8 22H17.5C19.7091 22 21.5 20.2091 21.5 18V6C21.5 3.79086 19.7091 2 17.5 2Z" stroke="#3E3D3D" stroke-width="1.5" stroke-linecap="round" stroke-linejoin="round"/>
<path d="M10.59 13.74C9.961 14.162 8.313 15.022 9.317 16.098C9.807 16.624 10.354 17 11.04 17H14.96C15.646 17 16.193 16.624 16.683 16.098C17.687 15.022 16.039 14.162 15.41 13.741C14.699 13.2582 13.8594 13.0001 13 13.0001C12.1406 13.0001 11.301 13.2582 10.59 13.741M5 6H2.5M5 12H2.5M5 18H2.5M15 9C15 9.53043 14.7893 10.0391 14.4142 10.4142C14.0391 10.7893 13.5304 11 13 11C12.4696 11 11.9609 10.7893 11.5858 10.4142C11.2107 10.0391 11 9.53043 11 9C11 8.46957 11.2107 7.96086 11.5858 7.58579C11.9609 7.21071 12.4696 7 13 7C13.5304 7 14.0391 7.21071 14.4142 7.58579C14.7893 7.96086 15 8.46957 15 9Z" stroke="#3E3D3D" stroke-width="1.5" stroke-linecap="round" stroke-linejoin="round"/>
</svg>
