<svg width="28" height="28" viewBox="0 0 28 28" fill="none" xmlns="http://www.w3.org/2000/svg">
<path d="M2.33325 8.16699L11.859 14.835C12.6304 15.375 13.016 15.6449 13.4356 15.7495C13.8061 15.8419 14.1937 15.8419 14.5643 15.7495C14.9838 15.6449 15.3695 15.375 16.1408 14.835L25.6666 8.16699M7.93325 23.3337H20.0666C22.0268 23.3337 23.0069 23.3337 23.7556 22.9522C24.4141 22.6166 24.9496 22.0812 25.2851 21.4226C25.6666 20.6739 25.6666 19.6938 25.6666 17.7337V10.267C25.6666 8.30681 25.6666 7.32672 25.2851 6.57803C24.9496 5.91946 24.4141 5.38403 23.7556 5.04847C23.0069 4.66699 22.0268 4.66699 20.0666 4.66699H7.93325C5.97307 4.66699 4.99298 4.66699 4.24429 5.04847C3.58572 5.38403 3.05029 5.91946 2.71473 6.57803C2.33325 7.32672 2.33325 8.30681 2.33325 10.267V17.7337C2.33325 19.6938 2.33325 20.6739 2.71473 21.4226C3.05029 22.0812 3.58572 22.6166 4.24429 22.9522C4.99298 23.3337 5.97307 23.3337 7.93325 23.3337Z" stroke="#414651" stroke-width="2" stroke-linecap="round" stroke-linejoin="round"/>
</svg>
