<svg width="244" height="60" viewBox="0 0 244 60" fill="none" xmlns="http://www.w3.org/2000/svg">
<path d="M231.651 41.9409V23.4906H235.888L235.958 29.3723L235.362 28.0419C235.619 27.1083 236.063 26.268 236.693 25.5212C237.323 24.7743 238.047 24.1908 238.863 23.7707C239.704 23.3272 240.579 23.1055 241.489 23.1055C241.886 23.1055 242.259 23.1405 242.61 23.2105C242.983 23.2805 243.286 23.3622 243.52 23.4556L242.364 28.1819C242.108 28.0419 241.793 27.9252 241.419 27.8318C241.046 27.7385 240.672 27.6918 240.299 27.6918C239.715 27.6918 239.155 27.8085 238.618 28.0419C238.105 28.252 237.65 28.5554 237.253 28.9522C236.856 29.3489 236.541 29.8157 236.308 30.3526C236.098 30.866 235.993 31.4495 235.993 32.1031V41.9409H231.651Z" fill="#6090FA"/>
<path d="M209.223 49.6444V23.4918H213.459L213.529 27.6931L212.794 27.378C212.934 26.6544 213.331 25.9776 213.984 25.3474C214.638 24.6939 215.431 24.1687 216.365 23.7719C217.322 23.3751 218.314 23.1768 219.341 23.1768C220.974 23.1768 222.421 23.5852 223.682 24.4021C224.966 25.219 225.969 26.3393 226.693 27.7631C227.44 29.1868 227.813 30.8323 227.813 32.6995C227.813 34.5434 227.44 36.1888 226.693 37.6359C225.969 39.0597 224.966 40.1917 223.682 41.0319C222.421 41.8488 220.998 42.2573 219.411 42.2573C218.337 42.2573 217.298 42.0472 216.295 41.6271C215.314 41.2069 214.474 40.6585 213.774 39.9816C213.097 39.3047 212.677 38.5929 212.514 37.846L213.564 37.3558V49.6444H209.223ZM218.535 38.4412C219.516 38.4412 220.391 38.1961 221.161 37.7059C221.931 37.2158 222.526 36.5389 222.947 35.6754C223.39 34.8118 223.612 33.8198 223.612 32.6995C223.612 31.5792 223.402 30.5989 222.982 29.7587C222.561 28.8951 221.966 28.2182 221.196 27.7281C220.426 27.2379 219.539 26.9929 218.535 26.9929C217.508 26.9929 216.61 27.2379 215.84 27.7281C215.093 28.1949 214.498 28.8601 214.054 29.7236C213.611 30.5872 213.389 31.5792 213.389 32.6995C213.389 33.8198 213.611 34.8118 214.054 35.6754C214.498 36.5389 215.093 37.2158 215.84 37.7059C216.61 38.1961 217.508 38.4412 218.535 38.4412Z" fill="#6090FA"/>
<path d="M193.988 42.2916C192.657 42.2916 191.502 41.9999 190.522 41.4164C189.541 40.8095 188.794 39.9576 188.281 38.8606C187.767 37.7403 187.511 36.4099 187.511 34.8695V23.4912H191.817V33.9592C191.817 34.9395 191.969 35.7798 192.272 36.48C192.576 37.1568 193.019 37.682 193.602 38.0554C194.186 38.4288 194.886 38.6156 195.703 38.6156C196.31 38.6156 196.858 38.5222 197.349 38.3355C197.862 38.1254 198.306 37.8453 198.679 37.4952C199.052 37.1218 199.344 36.69 199.554 36.1999C199.764 35.6864 199.869 35.1379 199.869 34.5544V23.4912H204.176V41.9415H199.974L199.904 38.0904L200.675 37.6703C200.394 38.5572 199.916 39.3508 199.239 40.051C198.586 40.7278 197.804 41.2763 196.893 41.6965C195.983 42.0932 195.015 42.2916 193.988 42.2916Z" fill="#6090FA"/>
<path d="M163.51 41.9414L157.313 23.4911L161.725 23.4561L165.856 36.6198L165.086 36.5498L169.567 26.2569H172.158L176.744 36.5498L175.834 36.6549L180 23.4911H184.411L178.179 41.9414H175.099L170.372 30.8782L171.037 30.9482L166.556 41.9414H163.51Z" fill="#1E4BAF"/>
<path d="M146.443 42.291C144.599 42.291 142.954 41.8825 141.507 41.0656C140.06 40.2254 138.916 39.0817 138.076 37.6347C137.236 36.1876 136.815 34.5421 136.815 32.6982C136.815 30.8544 137.236 29.2089 138.076 27.7618C138.916 26.3147 140.06 25.1827 141.507 24.3658C142.954 23.5256 144.599 23.1055 146.443 23.1055C148.264 23.1055 149.898 23.5256 151.345 24.3658C152.792 25.1827 153.924 26.3147 154.741 27.7618C155.581 29.2089 156.001 30.8544 156.001 32.6982C156.001 34.5421 155.581 36.1876 154.741 37.6347C153.924 39.0817 152.792 40.2254 151.345 41.0656C149.898 41.8825 148.264 42.291 146.443 42.291ZM146.443 38.4749C147.447 38.4749 148.334 38.2182 149.104 37.7047C149.898 37.1912 150.516 36.5027 150.96 35.6391C151.426 34.7755 151.648 33.7952 151.625 32.6982C151.648 31.5779 151.426 30.586 150.96 29.7224C150.516 28.8588 149.898 28.1819 149.104 27.6918C148.334 27.1783 147.447 26.9216 146.443 26.9216C145.44 26.9216 144.529 27.1783 143.712 27.6918C142.919 28.1819 142.3 28.8705 141.857 29.7574C141.413 30.621 141.192 31.6012 141.192 32.6982C141.192 33.7952 141.413 34.7755 141.857 35.6391C142.3 36.5027 142.919 37.1912 143.712 37.7047C144.529 38.2182 145.44 38.4749 146.443 38.4749Z" fill="#1E4BAF"/>
<path d="M128.946 41.9416V16.0342H133.288V41.9416H128.946Z" fill="#1E4BAF"/>
<path d="M119.51 41.9416V16.0342H123.851V41.9416H119.51Z" fill="#1E4BAF"/>
<path d="M106.066 42.291C104.222 42.291 102.576 41.8825 101.129 41.0656C99.6823 40.2254 98.5386 39.0817 97.6984 37.6347C96.8581 36.1876 96.438 34.5421 96.438 32.6982C96.438 30.8544 96.8581 29.2089 97.6984 27.7618C98.5386 26.3147 99.6823 25.1827 101.129 24.3658C102.576 23.5256 104.222 23.1055 106.066 23.1055C107.886 23.1055 109.52 23.5256 110.967 24.3658C112.414 25.1827 113.546 26.3147 114.363 27.7618C115.203 29.2089 115.624 30.8544 115.624 32.6982C115.624 34.5421 115.203 36.1876 114.363 37.6347C113.546 39.0817 112.414 40.2254 110.967 41.0656C109.52 41.8825 107.886 42.291 106.066 42.291ZM106.066 38.4749C107.069 38.4749 107.956 38.2182 108.727 37.7047C109.52 37.1912 110.139 36.5027 110.582 35.6391C111.049 34.7755 111.271 33.7952 111.247 32.6982C111.271 31.5779 111.049 30.586 110.582 29.7224C110.139 28.8588 109.52 28.1819 108.727 27.6918C107.956 27.1783 107.069 26.9216 106.066 26.9216C105.062 26.9216 104.152 27.1783 103.335 27.6918C102.541 28.1819 101.923 28.8705 101.479 29.7574C101.036 30.621 100.814 31.6012 100.814 32.6982C100.814 33.7952 101.036 34.7755 101.479 35.6391C101.923 36.5027 102.541 37.1912 103.335 37.7047C104.152 38.2182 105.062 38.4749 106.066 38.4749Z" fill="#1E4BAF"/>
<path d="M77.6108 41.9416V17.4346H82.1621V41.9416H77.6108ZM79.7114 31.8937V27.7625H92.3501V31.8937H79.7114ZM79.7114 21.6358V17.4346H93.8555V21.6358H79.7114Z" fill="#1E4BAF"/>
<path d="M7.83897 29.9998C7.83897 33.9327 8.61361 37.8271 10.1187 41.4606C11.6237 45.0941 13.8297 48.3956 16.6107 51.1765C19.3916 53.9575 22.6931 56.1635 26.3266 57.6686C29.9602 59.1736 33.8545 59.9482 37.7874 59.9482C41.7203 59.9482 45.6147 59.1736 49.2482 57.6686C52.8817 56.1635 56.1832 53.9575 58.9641 51.1765C61.7451 48.3956 63.9511 45.0941 65.4562 41.4606C66.9612 37.8271 67.7358 33.9327 67.7358 29.9998H58.1128C58.1128 32.669 57.5871 35.312 56.5656 37.778C55.5442 40.244 54.047 42.4846 52.1596 44.372C50.2723 46.2594 48.0316 47.7566 45.5656 48.778C43.0996 49.7995 40.4566 50.3252 37.7874 50.3252C35.1182 50.3252 32.4752 49.7995 30.0092 48.778C27.5432 47.7566 25.3026 46.2594 23.4152 44.372C21.5278 42.4847 20.0306 40.244 19.0092 37.778C17.9877 35.312 17.462 32.669 17.462 29.9998H7.83897Z" fill="#6090FA"/>
<path d="M67.7357 29.9992C67.7357 26.0663 66.9611 22.172 65.456 18.5384C63.951 14.9049 61.745 11.6034 58.964 8.82247C56.1831 6.0415 52.8816 3.83552 49.2481 2.33047C45.6146 0.82542 41.7202 0.0507811 37.7873 0.0507813C33.8544 0.0507814 29.96 0.825421 26.3265 2.33047C22.693 3.83552 19.3915 6.04151 16.6106 8.82248C13.8296 11.6034 11.6236 14.9049 10.1186 18.5384C8.61351 22.172 7.83887 26.0663 7.83887 29.9992H17.4613C17.4613 27.33 17.987 24.6869 19.0085 22.2208C20.03 19.7547 21.5272 17.514 23.4146 15.6266C25.3021 13.7391 27.5428 12.2419 30.0089 11.2204C32.4749 10.199 35.1181 9.67321 37.7873 9.67321C40.4565 9.67321 43.0997 10.199 45.5657 11.2204C48.0318 12.2419 50.2725 13.7391 52.16 15.6266C54.0474 17.514 55.5446 19.7547 56.5661 22.2208C57.5876 24.6869 58.1133 27.33 58.1133 29.9992H67.7357Z" fill="#1E4BAF"/>
<path d="M60.0487 40.8049L72.5339 30.7321L53.7539 26.0497L60.0487 40.8049Z" fill="#1E4BAF"/>
<path d="M14.4462 20.4835L2.69487 31.402L21.7544 34.7627L14.4462 20.4835Z" fill="#6090FA"/>
</svg>
