<svg width="24" height="24" viewBox="0 0 24 24" fill="none" xmlns="http://www.w3.org/2000/svg">
<path d="M20 20.0004L15.95 15.9504M15.95 15.9504C16.6 15.3003 17.1157 14.5286 17.4675 13.6793C17.8193 12.83 18.0004 11.9197 18.0004 11.0004C18.0004 10.0811 17.8193 9.17076 17.4675 8.32144C17.1157 7.47211 16.6 6.7004 15.95 6.05036C15.3 5.40031 14.5282 4.88467 13.6789 4.53287C12.8296 4.18107 11.9193 4 11 4C10.0807 4 9.17041 4.18107 8.32109 4.53287C7.47176 4.88467 6.70005 5.40031 6.05001 6.05036C4.73718 7.36318 3.99965 9.14375 3.99965 11.0004C3.99965 12.857 4.73718 14.6375 6.05001 15.9504C7.36283 17.2632 9.1434 18.0007 11 18.0007C12.8566 18.0007 14.6372 17.2632 15.95 15.9504Z" stroke="#3E3D3D" stroke-width="2" stroke-linecap="round" stroke-linejoin="round"/>
</svg>
