<svg width="17" height="16" viewBox="0 0 17 16" fill="none" xmlns="http://www.w3.org/2000/svg">
<path d="M15.1665 11.2807V13.2807C15.1672 13.4664 15.1292 13.6502 15.0548 13.8203C14.9804 13.9904 14.8713 14.1431 14.7345 14.2686C14.5977 14.3941 14.4362 14.4897 14.2603 14.5492C14.0844 14.6087 13.898 14.6308 13.7131 14.614C11.6617 14.3911 9.69113 13.6901 7.95979 12.5674C6.34901 11.5438 4.98335 10.1782 3.95979 8.56738C2.83311 6.82819 2.13195 4.84805 1.91313 2.78738C1.89647 2.60303 1.91838 2.41722 1.97746 2.2418C2.03654 2.06637 2.13151 1.90518 2.2563 1.76846C2.3811 1.63175 2.533 1.52252 2.70232 1.44773C2.87164 1.37294 3.05469 1.33422 3.23979 1.33405H5.23979C5.56333 1.33086 5.87699 1.44543 6.1223 1.6564C6.36761 1.86737 6.52784 2.16035 6.57313 2.48072C6.65754 3.12076 6.81409 3.7492 7.03979 4.35405C7.12949 4.59266 7.1489 4.85199 7.09573 5.1013C7.04256 5.35061 6.91903 5.57946 6.73979 5.76072L5.89313 6.60738C6.84216 8.27641 8.2241 9.65835 9.89313 10.6074L10.7398 9.76072C10.9211 9.58147 11.1499 9.45795 11.3992 9.40478C11.6485 9.35161 11.9078 9.37102 12.1465 9.46072C12.7513 9.68642 13.3797 9.84297 14.0198 9.92738C14.3436 9.97307 14.6394 10.1362 14.8508 10.3857C15.0622 10.6352 15.1746 10.9538 15.1665 11.2807Z" stroke="#22C55E" stroke-width="1.33333" stroke-linecap="round" stroke-linejoin="round"/>
</svg>
