<svg width="17" height="16" viewBox="0 0 17 16" fill="none" xmlns="http://www.w3.org/2000/svg">
<path d="M11.4168 14V12.6667C11.4168 11.9594 11.1359 11.2811 10.6358 10.781C10.1357 10.281 9.45741 10 8.75016 10H4.75016C4.04292 10 3.36464 10.281 2.86454 10.781C2.36445 11.2811 2.0835 11.9594 2.0835 12.6667V14" stroke="#3B82F6" stroke-width="1.33333" stroke-linecap="round" stroke-linejoin="round"/>
<path d="M6.75016 7.33333C8.22292 7.33333 9.41683 6.13943 9.41683 4.66667C9.41683 3.19391 8.22292 2 6.75016 2C5.2774 2 4.0835 3.19391 4.0835 4.66667C4.0835 6.13943 5.2774 7.33333 6.75016 7.33333Z" stroke="#3B82F6" stroke-width="1.33333" stroke-linecap="round" stroke-linejoin="round"/>
<path d="M15.4165 13.9993V12.6659C15.4161 12.0751 15.2194 11.5011 14.8574 11.0341C14.4954 10.5672 13.9886 10.2336 13.4165 10.0859" stroke="#3B82F6" stroke-width="1.33333" stroke-linecap="round" stroke-linejoin="round"/>
<path d="M11.4165 2.08594C11.9901 2.2328 12.4985 2.5664 12.8616 3.03414C13.2247 3.50188 13.4217 4.07716 13.4217 4.66927C13.4217 5.26138 13.2247 5.83666 12.8616 6.3044C12.4985 6.77214 11.9901 7.10574 11.4165 7.2526" stroke="#3B82F6" stroke-width="1.33333" stroke-linecap="round" stroke-linejoin="round"/>
</svg>
